<?xml version="1.0" encoding="UTF-8" standalone="no"?>
<svg
   height="16"
   viewBox="0 0 16 16"
   width="16"
   version="1.1"
   id="svg4"
   sodipodi:docname="icon.svg"
   inkscape:version="1.3 (0e150ed6c4, 2023-07-21)"
   inkscape:export-filename="/home/cranton/Programming/Godot/TileMap3D/Icon/IconTest.png"
   inkscape:export-xdpi="96"
   inkscape:export-ydpi="96"
   xmlns:inkscape="http://www.inkscape.org/namespaces/inkscape"
   xmlns:sodipodi="http://sodipodi.sourceforge.net/DTD/sodipodi-0.dtd"
   xmlns="http://www.w3.org/2000/svg"
   xmlns:svg="http://www.w3.org/2000/svg">
  <defs
     id="defs8" />
  <sodipodi:namedview
     id="namedview6"
     pagecolor="#505050"
     bordercolor="#ffffff"
     borderopacity="1"
     inkscape:pageshadow="0"
     inkscape:pageopacity="0"
     inkscape:pagecheckerboard="1"
     showgrid="true"
     inkscape:zoom="22.627417"
     inkscape:cx="8.2643105"
     inkscape:cy="6.6733202"
     inkscape:window-width="1920"
     inkscape:window-height="1048"
     inkscape:window-x="0"
     inkscape:window-y="32"
     inkscape:window-maximized="1"
     inkscape:current-layer="svg4"
     inkscape:showpageshadow="2"
     inkscape:deskcolor="#d1d1d1">
    <inkscape:grid
       type="xygrid"
       id="grid821"
       empspacing="1"
       originx="0"
       originy="0"
       spacingy="1"
       spacingx="1"
       units="px"
       visible="true" />
  </sodipodi:namedview>
  <path
     d="M 1,1 V 3 H 3 V 1 Z M 4,1 V 3 H 6 V 1 Z M 7,1 V 3 H 9 V 1 Z m 3,0 v 2 h 2 V 1 Z m 3,0 v 2 h 2 V 1 Z M 1,4 V 6 H 3 V 4 Z M 4,4 V 6 H 6 V 4 Z M 7,4 V 6 H 9 V 4 Z m 3,0 v 2 h 2 V 4 Z m 3,0 v 2 h 2 V 4 Z M 1,7 V 9 H 3 V 7 Z M 4,7 V 9 H 6 V 7 Z M 7,7 V 9 H 9 V 7 Z m 3,0 v 2 h 2 V 7 Z m 3,0 v 2 h 2 V 7 Z M 1,10 v 2 h 2 v -2 z m 3,0 v 2 h 2 v -2 z m 3,0 v 2 h 2 v -2 z m 3,0 v 2 h 2 v -2 z m 3,0 v 2 h 2 V 10 Z M 1,13 v 2 h 2 v -2 z m 3,0 v 2 h 2 v -2 z m 3,0 v 2 h 2 v -2 z m 3,0 v 2 h 2 v -2 z m 3,0 v 2 h 2 v -2 z"
     fill="#a5b7f3"
     fill-opacity=".98824"
     id="path2"
     style="fill:#ff5555;fill-opacity:1" />
</svg>
