<?xml version="1.0" encoding="UTF-8" standalone="no"?>
<svg
   height="512"
   viewBox="0 0 512 512"
   width="512"
   version="1.1"
   id="svg4"
   sodipodi:docname="Icon.svg"
   inkscape:version="1.1.1 (3bf5ae0d25, 2021-09-20)"
   inkscape:export-filename="/home/cranton/Programming/Godot/TileMap3D/Icon.png"
   inkscape:export-xdpi="96"
   inkscape:export-ydpi="96"
   xmlns:inkscape="http://www.inkscape.org/namespaces/inkscape"
   xmlns:sodipodi="http://sodipodi.sourceforge.net/DTD/sodipodi-0.dtd"
   xmlns="http://www.w3.org/2000/svg"
   xmlns:svg="http://www.w3.org/2000/svg">
  <defs
     id="defs8" />
  <sodipodi:namedview
     id="namedview6"
     pagecolor="#505050"
     bordercolor="#ffffff"
     borderopacity="1"
     inkscape:pageshadow="0"
     inkscape:pageopacity="0"
     inkscape:pagecheckerboard="1"
     showgrid="true"
     inkscape:zoom="0.5"
     inkscape:cx="226"
     inkscape:cy="336"
     inkscape:window-width="1366"
     inkscape:window-height="707"
     inkscape:window-x="0"
     inkscape:window-y="0"
     inkscape:window-maximized="1"
     inkscape:current-layer="svg4">
    <inkscape:grid
       type="xygrid"
       id="grid821"
       empspacing="1" />
  </sodipodi:namedview>
  <path
     d="M 0,0 V 73.142857 H 73.142857 V 0 Z m 109.71429,0 v 73.142857 h 73.14284 V 0 Z m 109.71428,0 v 73.142857 h 73.14286 V 0 Z m 109.71429,0 v 73.142857 h 73.14285 V 0 Z M 438.85713,0 V 73.142857 H 512 V 0 Z M 0,109.71429 v 73.14284 h 73.142857 v -73.14284 z m 109.71429,0 v 73.14284 h 73.14284 v -73.14284 z m 109.71428,0 v 73.14284 h 73.14286 v -73.14284 z m 109.71429,0 v 73.14284 h 73.14285 v -73.14284 z m 109.71427,0 v 73.14284 H 512 V 109.71429 Z M 0,219.42857 v 73.14286 h 73.142857 v -73.14286 z m 109.71429,0 v 73.14286 h 73.14284 v -73.14286 z m 109.71428,0 v 73.14286 h 73.14286 v -73.14286 z m 109.71429,0 v 73.14286 h 73.14285 v -73.14286 z m 109.71427,0 v 73.14286 H 512 V 219.42857 Z M 0,329.14286 v 73.14285 h 73.142857 v -73.14285 z m 109.71429,0 v 73.14285 h 73.14284 v -73.14285 z m 109.71428,0 v 73.14285 h 73.14286 v -73.14285 z m 109.71429,0 v 73.14285 h 73.14285 v -73.14285 z m 109.71427,0 v 73.14285 H 512 V 329.14286 Z M 0,438.85713 V 512 h 73.142857 v -73.14287 z m 109.71429,0 V 512 h 73.14284 v -73.14287 z m 109.71428,0 V 512 h 73.14286 v -73.14287 z m 109.71429,0 V 512 h 73.14285 v -73.14287 z m 109.71427,0 V 512 H 512 v -73.14287 z"
     fill="#a5b7f3"
     fill-opacity=".98824"
     id="path2"
     style="fill:#fc9c9c;fill-opacity:1;stroke-width:36.5714" />
</svg>
